<svg width="1000" height="1000" viewBox="0 0 1000 1000" fill="none" xmlns="http://www.w3.org/2000/svg">
<rect width="1000" height="1000" rx="100" fill="#F2F1F9"/>
<path fill-rule="evenodd" clip-rule="evenodd" d="M342.29 99C322.709 99 306.835 114.873 306.835 134.454V306.835H134.454C114.873 306.835 99 322.709 99 342.29C99 361.87 114.873 377.744 134.454 377.744H306.835V622.256H134.454C114.873 622.256 99 638.129 99 657.71C99 677.291 114.873 693.165 134.454 693.165H306.835V865.546C306.835 885.127 322.709 901 342.29 901C361.87 901 377.744 885.127 377.744 865.546V693.165H622.256V865.546C622.256 885.127 638.13 901 657.71 901C677.291 901 693.165 885.127 693.165 865.546V693.165H865.546C885.127 693.165 901 677.291 901 657.71C901 638.13 885.127 622.256 865.546 622.256H693.165V377.744H865.546C885.127 377.744 901 361.871 901 342.29C901 322.709 885.127 306.835 865.546 306.835H693.165V134.454C693.165 114.873 677.291 99 657.71 99C638.13 99 622.256 114.873 622.256 134.454V306.835H377.744V134.454C377.744 114.873 361.87 99 342.29 99ZM622.256 622.256V377.744L377.744 377.744V622.256L622.256 622.256Z" fill="#424242"/>
</svg>
